<mxfile host="app.diagrams.net" modified="2021-03-31T00:57:57.271Z" agent="5.0 (Windows NT 10.0; Win64; x64) AppleWebKit/537.36 (KHTML, like Gecko) Chrome/89.0.4389.90 Safari/537.36" etag="j6HkK1Ty0CHVFQ0mq1an" version="14.5.3" type="github">
  <diagram id="0di0lFyNLbhq4wlqugim" name="Page-1">
    <mxGraphModel dx="1422" dy="794" grid="1" gridSize="10" guides="1" tooltips="1" connect="1" arrows="1" fold="1" page="1" pageScale="1" pageWidth="850" pageHeight="1100" math="0" shadow="0">
      <root>
        <mxCell id="0" />
        <mxCell id="1" parent="0" />
        <mxCell id="Az7VefVuqN5rcJI2EuHU-1" value="Actor" style="shape=umlActor;verticalLabelPosition=bottom;verticalAlign=top;html=1;outlineConnect=0;" parent="1" vertex="1">
          <mxGeometry x="60" y="80" width="30" height="60" as="geometry" />
        </mxCell>
        <mxCell id="Az7VefVuqN5rcJI2EuHU-21" style="edgeStyle=orthogonalEdgeStyle;rounded=0;orthogonalLoop=1;jettySize=auto;html=1;exitX=0.5;exitY=1;exitDx=0;exitDy=0;entryX=0.5;entryY=0;entryDx=0;entryDy=0;startArrow=none;startFill=0;endArrow=none;endFill=0;dashed=1;" parent="1" source="Az7VefVuqN5rcJI2EuHU-2" target="Az7VefVuqN5rcJI2EuHU-15" edge="1">
          <mxGeometry relative="1" as="geometry" />
        </mxCell>
        <mxCell id="Az7VefVuqN5rcJI2EuHU-2" value="User Interface" style="rounded=0;whiteSpace=wrap;html=1;" parent="1" vertex="1">
          <mxGeometry x="220" y="20" width="80" height="30" as="geometry" />
        </mxCell>
        <mxCell id="Az7VefVuqN5rcJI2EuHU-13" value="retrieveMemberInfo" style="endArrow=classic;html=1;verticalAlign=bottom;" parent="1" edge="1">
          <mxGeometry relative="1" as="geometry">
            <mxPoint x="100" y="100" as="sourcePoint" />
            <mxPoint x="250" y="100" as="targetPoint" />
            <Array as="points" />
          </mxGeometry>
        </mxCell>
        <mxCell id="Az7VefVuqN5rcJI2EuHU-36" style="edgeStyle=orthogonalEdgeStyle;rounded=0;orthogonalLoop=1;jettySize=auto;html=1;exitX=0.5;exitY=1;exitDx=0;exitDy=0;dashed=1;startArrow=none;startFill=0;endArrow=none;endFill=0;" parent="1" source="Az7VefVuqN5rcJI2EuHU-15" edge="1">
          <mxGeometry relative="1" as="geometry">
            <mxPoint x="260" y="400" as="targetPoint" />
          </mxGeometry>
        </mxCell>
        <mxCell id="Az7VefVuqN5rcJI2EuHU-15" value="" style="rounded=0;whiteSpace=wrap;html=1;" parent="1" vertex="1">
          <mxGeometry x="250" y="80" width="20" height="280" as="geometry" />
        </mxCell>
        <mxCell id="Az7VefVuqN5rcJI2EuHU-16" value="data request" style="endArrow=none;html=1;verticalAlign=bottom;entryX=-0.05;entryY=0.039;entryDx=0;entryDy=0;entryPerimeter=0;startArrow=classic;startFill=1;endFill=0;" parent="1" edge="1">
          <mxGeometry relative="1" as="geometry">
            <mxPoint x="101" y="170" as="sourcePoint" />
            <mxPoint x="250" y="170.91999999999996" as="targetPoint" />
            <Array as="points" />
          </mxGeometry>
        </mxCell>
        <mxCell id="Az7VefVuqN5rcJI2EuHU-17" value="string" style="endArrow=classic;html=1;verticalAlign=bottom;entryX=-0.05;entryY=0.039;entryDx=0;entryDy=0;entryPerimeter=0;" parent="1" edge="1">
          <mxGeometry relative="1" as="geometry">
            <mxPoint x="101" y="190" as="sourcePoint" />
            <mxPoint x="250" y="190.91999999999996" as="targetPoint" />
            <Array as="points" />
          </mxGeometry>
        </mxCell>
        <mxCell id="Az7VefVuqN5rcJI2EuHU-24" style="edgeStyle=orthogonalEdgeStyle;rounded=0;orthogonalLoop=1;jettySize=auto;html=1;exitX=0.5;exitY=1;exitDx=0;exitDy=0;entryX=0.5;entryY=0;entryDx=0;entryDy=0;dashed=1;startArrow=none;startFill=0;endArrow=none;endFill=0;" parent="1" source="Az7VefVuqN5rcJI2EuHU-22" target="Az7VefVuqN5rcJI2EuHU-23" edge="1">
          <mxGeometry relative="1" as="geometry" />
        </mxCell>
        <mxCell id="Az7VefVuqN5rcJI2EuHU-22" value="Store" style="rounded=0;whiteSpace=wrap;html=1;" parent="1" vertex="1">
          <mxGeometry x="360" y="20" width="80" height="30" as="geometry" />
        </mxCell>
        <mxCell id="Az7VefVuqN5rcJI2EuHU-37" style="edgeStyle=orthogonalEdgeStyle;rounded=0;orthogonalLoop=1;jettySize=auto;html=1;exitX=0.5;exitY=1;exitDx=0;exitDy=0;dashed=1;startArrow=none;startFill=0;endArrow=none;endFill=0;" parent="1" source="Az7VefVuqN5rcJI2EuHU-23" edge="1">
          <mxGeometry relative="1" as="geometry">
            <mxPoint x="400" y="400" as="targetPoint" />
          </mxGeometry>
        </mxCell>
        <mxCell id="Az7VefVuqN5rcJI2EuHU-23" value="" style="rounded=0;whiteSpace=wrap;html=1;" parent="1" vertex="1">
          <mxGeometry x="390" y="80" width="20" height="280" as="geometry" />
        </mxCell>
        <mxCell id="Az7VefVuqN5rcJI2EuHU-25" value="findMember(string)" style="endArrow=classic;html=1;verticalAlign=bottom;" parent="1" edge="1">
          <mxGeometry relative="1" as="geometry">
            <mxPoint x="270" y="230" as="sourcePoint" />
            <mxPoint x="390" y="230" as="targetPoint" />
            <Array as="points">
              <mxPoint x="340" y="230" />
            </Array>
          </mxGeometry>
        </mxCell>
        <mxCell id="Az7VefVuqN5rcJI2EuHU-28" style="edgeStyle=orthogonalEdgeStyle;rounded=0;orthogonalLoop=1;jettySize=auto;html=1;exitX=0.5;exitY=1;exitDx=0;exitDy=0;entryX=0.5;entryY=0;entryDx=0;entryDy=0;dashed=1;startArrow=none;startFill=0;endArrow=none;endFill=0;" parent="1" source="Az7VefVuqN5rcJI2EuHU-26" target="Az7VefVuqN5rcJI2EuHU-27" edge="1">
          <mxGeometry relative="1" as="geometry" />
        </mxCell>
        <mxCell id="Az7VefVuqN5rcJI2EuHU-26" value="MemberList" style="rounded=0;whiteSpace=wrap;html=1;" parent="1" vertex="1">
          <mxGeometry x="590" y="20" width="80" height="30" as="geometry" />
        </mxCell>
        <mxCell id="Az7VefVuqN5rcJI2EuHU-38" style="edgeStyle=orthogonalEdgeStyle;rounded=0;orthogonalLoop=1;jettySize=auto;html=1;exitX=0.5;exitY=1;exitDx=0;exitDy=0;dashed=1;startArrow=none;startFill=0;endArrow=none;endFill=0;" parent="1" source="Az7VefVuqN5rcJI2EuHU-27" edge="1">
          <mxGeometry relative="1" as="geometry">
            <mxPoint x="630" y="400" as="targetPoint" />
          </mxGeometry>
        </mxCell>
        <mxCell id="Az7VefVuqN5rcJI2EuHU-27" value="" style="rounded=0;whiteSpace=wrap;html=1;" parent="1" vertex="1">
          <mxGeometry x="620" y="80" width="20" height="280" as="geometry" />
        </mxCell>
        <mxCell id="Az7VefVuqN5rcJI2EuHU-29" value="member = findMember(string)" style="endArrow=classic;html=1;verticalAlign=bottom;entryX=0.05;entryY=0.607;entryDx=0;entryDy=0;entryPerimeter=0;" parent="1" edge="1" target="Az7VefVuqN5rcJI2EuHU-27">
          <mxGeometry relative="1" as="geometry">
            <mxPoint x="410" y="250" as="sourcePoint" />
            <mxPoint x="602" y="250.38" as="targetPoint" />
            <Array as="points" />
          </mxGeometry>
        </mxCell>
        <mxCell id="Az7VefVuqN5rcJI2EuHU-30" value="result" style="endArrow=none;html=1;verticalAlign=bottom;startArrow=classic;startFill=1;endFill=0;dashed=1;" parent="1" edge="1">
          <mxGeometry x="-0.2" relative="1" as="geometry">
            <mxPoint x="270" y="260.5" as="sourcePoint" />
            <mxPoint x="391" y="260" as="targetPoint" />
            <Array as="points" />
            <mxPoint as="offset" />
          </mxGeometry>
        </mxCell>
        <mxCell id="Az7VefVuqN5rcJI2EuHU-31" value="result" style="endArrow=none;html=1;verticalAlign=bottom;entryX=-0.05;entryY=0.039;entryDx=0;entryDy=0;entryPerimeter=0;startArrow=classic;startFill=1;endFill=0;" parent="1" edge="1">
          <mxGeometry relative="1" as="geometry">
            <mxPoint x="101" y="290" as="sourcePoint" />
            <mxPoint x="250" y="290.91999999999996" as="targetPoint" />
            <Array as="points" />
          </mxGeometry>
        </mxCell>
        <mxCell id="Az7VefVuqN5rcJI2EuHU-32" value="Find more member?" style="endArrow=none;html=1;verticalAlign=bottom;entryX=-0.05;entryY=0.039;entryDx=0;entryDy=0;entryPerimeter=0;startArrow=classic;startFill=1;endFill=0;" parent="1" edge="1">
          <mxGeometry relative="1" as="geometry">
            <mxPoint x="101" y="320" as="sourcePoint" />
            <mxPoint x="250" y="320.9200000000001" as="targetPoint" />
            <Array as="points" />
          </mxGeometry>
        </mxCell>
        <mxCell id="Az7VefVuqN5rcJI2EuHU-33" value="Yes/No" style="endArrow=classic;html=1;verticalAlign=bottom;entryX=-0.05;entryY=0.039;entryDx=0;entryDy=0;entryPerimeter=0;" parent="1" edge="1">
          <mxGeometry relative="1" as="geometry">
            <mxPoint x="101" y="340" as="sourcePoint" />
            <mxPoint x="250" y="340.91999999999996" as="targetPoint" />
            <Array as="points" />
          </mxGeometry>
        </mxCell>
        <mxCell id="Az7VefVuqN5rcJI2EuHU-34" value="loop" style="shape=umlFrame;whiteSpace=wrap;html=1;" parent="1" vertex="1">
          <mxGeometry x="180" y="200" width="470" height="200" as="geometry" />
        </mxCell>
      </root>
    </mxGraphModel>
  </diagram>
</mxfile>
